<?xml version="1.0" standalone="no"?><!DOCTYPE svg PUBLIC "-//W3C//DTD SVG 1.1//EN" "http://www.w3.org/Graphics/SVG/1.1/DTD/svg11.dtd"><svg t="1522154136489" class="icon" style="" viewBox="0 0 1024 1024" version="1.1" xmlns="http://www.w3.org/2000/svg" p-id="702" data-spm-anchor-id="a313x.7781069.0.i0" xmlns:xlink="http://www.w3.org/1999/xlink" width="200" height="200"><defs><style type="text/css"></style></defs><path d="M512 539.80455308c-7.45885053 0-14.47084567-2.89056594-19.74528409-8.13905312-5.27647593-5.25245489-8.1829129-12.23453093-8.18291291-19.66539274 0-7.42893151 2.90654426-14.4129378 8.18098268-19.66346245 5.27443844-5.24848715 12.28643349-8.13905312 19.74528408-8.1390531s14.47084567 2.89056594 19.74324659 8.1390531c5.27840617 5.25052459 8.1829129 12.23453093 8.18291291 19.66142495 0.00203752 7.43086173-2.90450675 14.4149753-8.18291291 19.66539275C526.47084567 536.9119496 519.45885053 539.80455308 512 539.80455308zM512 488.18518936c-6.39752866 0-12.4100775 2.47759732-16.93042724 6.97810831-4.51841952 4.49643597-7.00802735 10.47702821-7.00802733 16.83670233s2.48757037 12.34026636 7.00598983 16.8346648c4.52034975 4.50040371 10.53289856 6.97810832 16.93042723 6.97810832 6.39559838 0 12.4100775-2.47759732 16.93042724-6.97810832 4.51841952-4.4984735 7.00802735-10.47702821 7.00598983-16.83670231 0-6.35967411-2.48757037-12.33822883-7.00598983-16.83273459C524.4100775 490.66482419 518.39559838 488.18518936 512 488.18518936z" p-id="703"></path><path d="M525.96415211 510.0051824L513.99492483 510.0051824 513.99492483 498.03595512c0-1.10121392-0.8937109-1.99492483-1.99492483-1.99492483s-1.99492483 0.8937109-1.99492483 1.99492483l-1e-8 11.96922728L498.03595512 510.0051824c-1.10121392 0-1.99492483 0.8937109-1.99492483 1.99492483s0.8937109 1.99492483 1.99492483 1.99492481l11.96922728 1e-8 0 11.96922729c0 1.10314422 0.8937109 1.99492483 1.99492482 1.99492482s1.99492483-0.89167339 1.99492482-1.99492483L513.99503204 513.99492483l11.96922729 1e-8c1.10314422 0 1.99492483-0.8937109 1.99492484-1.99492484S527.06729632 510.0051824 525.96415211 510.0051824z" p-id="704"></path></svg>